<svg id="z12504" class="acjk" version="1.1" viewBox="0 0 1024 1024"
	xmlns="http://www.w3.org/2000/svg" xmlns:xlink="http://www.w3.org/1999/xlink">
	<style>
<![CDATA[
@keyframes zk {
	to {
		stroke-dashoffset:0;
	}
}
svg.acjk path[clip-path] {
	--t:0.8s;
	animation:zk var(--t) linear forwards var(--d);
	stroke-dasharray:3337;
	stroke-dashoffset:3339;
	stroke-width:128;
	stroke-linecap:round;
	fill:none;
	stroke:#6F62E7;
}
svg.acjk path[id] {fill:#bbb}
]]>
</style>
	<path id="z12504d1"
		d="M297 337C264 356 235 373 207 392C174 414 156 426 128 422C88 417 92 450 132 490C163 521 180 518 202 495C279 409 319 376 381 346C412 329 432 345 454 366C606 511 715 613 881 716C923 742 934 693 912 646C884 586 858 586 770 537C650 469 571 394 472 323C411 279 350 305 297 337Z" />
	<defs>
		<clipPath id="z12504c1">
			<use xlink:href="#z12504d1" />
		</clipPath>
	</defs>
	<path style="--d:1s;" pathLength="3333" clip-path="url(#z12504c1)"
		d="M105 431L169 465L338 341L432 324L856 643L914 711" />
</svg>