<svg id="z12540" class="acjk" version="1.1" viewBox="0 0 1024 1024"
	xmlns="http://www.w3.org/2000/svg" xmlns:xlink="http://www.w3.org/1999/xlink">
	<style>
<![CDATA[
@keyframes zk {
	to {
		stroke-dashoffset:0;
	}
}
svg.acjk path[clip-path] {
	--t:0.8s;
	animation:zk var(--t) linear forwards var(--d);
	stroke-dasharray:3337;
	stroke-dashoffset:3339;
	stroke-width:128;
	stroke-linecap:round;
	fill:none;
	stroke:#6F62E7;
}
svg.acjk path[id] {fill:#bbb}
]]>
</style>
	<path id="z12540d1"
		d="M817 447C736 441 564 459 455 463C343 468 232 469 120 465C111 464 104 472 106 481C108 496 121 507 132 516C147 526 162 539 180 540C196 541 253 528 457 519C564 514 672 514 780 527C816 531 911 557 914 519C916 488 886 452 817 447Z" />
	<defs>
		<clipPath id="z12540c1">
			<use xlink:href="#z12540d1" />
		</clipPath>
	</defs>
	<path style="--d:1s;" pathLength="3333" clip-path="url(#z12540c1)"
		d="M 120,479 178,504 806,486 902,522.2" />
</svg>